<mxfile host="app.diagrams.net" agent="Mozilla/5.0 (Windows NT 10.0; Win64; x64) AppleWebKit/537.36 (KHTML, like Gecko) Chrome/138.0.0.0 YaBrowser/25.8.0.0 Safari/537.36" version="28.2.3">
  <diagram name="Страница — 1" id="D0A5KSihrDzlFZ5AkqKc">
    <mxGraphModel dx="2977" dy="2735" grid="1" gridSize="10" guides="1" tooltips="1" connect="1" arrows="1" fold="1" page="1" pageScale="1" pageWidth="827" pageHeight="1169" math="0" shadow="0">
      <root>
        <mxCell id="0" />
        <mxCell id="1" parent="0" />
        <mxCell id="Mj05zwDxuwMNoxbGGxml-1" value="" style="endArrow=none;html=1;rounded=0;exitX=0;exitY=0.5;exitDx=0;exitDy=0;entryX=1;entryY=0.5;entryDx=0;entryDy=0;" edge="1" parent="1" source="Mj05zwDxuwMNoxbGGxml-12" target="Mj05zwDxuwMNoxbGGxml-3">
          <mxGeometry width="50" height="50" relative="1" as="geometry">
            <mxPoint x="580" y="300" as="sourcePoint" />
            <mxPoint x="750" y="230" as="targetPoint" />
          </mxGeometry>
        </mxCell>
        <mxCell id="Mj05zwDxuwMNoxbGGxml-2" value="" style="group" vertex="1" connectable="0" parent="1">
          <mxGeometry x="320" y="300" width="120" height="80" as="geometry" />
        </mxCell>
        <mxCell id="Mj05zwDxuwMNoxbGGxml-3" value="" style="ellipse;whiteSpace=wrap;html=1;" vertex="1" parent="Mj05zwDxuwMNoxbGGxml-2">
          <mxGeometry width="120" height="80" as="geometry" />
        </mxCell>
        <mxCell id="Mj05zwDxuwMNoxbGGxml-4" value="&lt;u&gt;CustomerID&lt;/u&gt;" style="text;html=1;align=center;verticalAlign=middle;whiteSpace=wrap;rounded=0;" vertex="1" parent="Mj05zwDxuwMNoxbGGxml-2">
          <mxGeometry x="30" y="25" width="60" height="30" as="geometry" />
        </mxCell>
        <mxCell id="Mj05zwDxuwMNoxbGGxml-5" value="" style="group" vertex="1" connectable="0" parent="1">
          <mxGeometry x="340" y="120" width="120" height="80" as="geometry" />
        </mxCell>
        <mxCell id="Mj05zwDxuwMNoxbGGxml-6" value="" style="ellipse;whiteSpace=wrap;html=1;" vertex="1" parent="Mj05zwDxuwMNoxbGGxml-5">
          <mxGeometry width="120" height="80" as="geometry" />
        </mxCell>
        <mxCell id="Mj05zwDxuwMNoxbGGxml-7" value="Email" style="text;html=1;align=center;verticalAlign=middle;whiteSpace=wrap;rounded=0;" vertex="1" parent="Mj05zwDxuwMNoxbGGxml-5">
          <mxGeometry x="30" y="25" width="60" height="30" as="geometry" />
        </mxCell>
        <mxCell id="Mj05zwDxuwMNoxbGGxml-8" value="" style="group" vertex="1" connectable="0" parent="1">
          <mxGeometry x="320" y="210" width="120" height="80" as="geometry" />
        </mxCell>
        <mxCell id="Mj05zwDxuwMNoxbGGxml-9" value="" style="ellipse;whiteSpace=wrap;html=1;" vertex="1" parent="Mj05zwDxuwMNoxbGGxml-8">
          <mxGeometry width="120" height="80" as="geometry" />
        </mxCell>
        <mxCell id="Mj05zwDxuwMNoxbGGxml-10" value="Name" style="text;html=1;align=center;verticalAlign=middle;whiteSpace=wrap;rounded=0;" vertex="1" parent="Mj05zwDxuwMNoxbGGxml-8">
          <mxGeometry x="30" y="25" width="60" height="30" as="geometry" />
        </mxCell>
        <mxCell id="Mj05zwDxuwMNoxbGGxml-11" value="" style="group" vertex="1" connectable="0" parent="1">
          <mxGeometry x="550" y="270" width="120" height="60" as="geometry" />
        </mxCell>
        <mxCell id="Mj05zwDxuwMNoxbGGxml-12" value="" style="rounded=1;whiteSpace=wrap;html=1;" vertex="1" parent="Mj05zwDxuwMNoxbGGxml-11">
          <mxGeometry width="120" height="60" as="geometry" />
        </mxCell>
        <mxCell id="Mj05zwDxuwMNoxbGGxml-13" value="Customer" style="text;html=1;align=center;verticalAlign=middle;whiteSpace=wrap;rounded=0;" vertex="1" parent="Mj05zwDxuwMNoxbGGxml-11">
          <mxGeometry x="30" y="15" width="60" height="30" as="geometry" />
        </mxCell>
        <mxCell id="Mj05zwDxuwMNoxbGGxml-14" value="" style="group" vertex="1" connectable="0" parent="1">
          <mxGeometry x="430" y="360" width="120" height="80" as="geometry" />
        </mxCell>
        <mxCell id="Mj05zwDxuwMNoxbGGxml-15" value="" style="ellipse;whiteSpace=wrap;html=1;" vertex="1" parent="Mj05zwDxuwMNoxbGGxml-14">
          <mxGeometry width="120" height="80" as="geometry" />
        </mxCell>
        <mxCell id="Mj05zwDxuwMNoxbGGxml-16" value="BillingAddress" style="text;html=1;align=center;verticalAlign=middle;whiteSpace=wrap;rounded=0;" vertex="1" parent="Mj05zwDxuwMNoxbGGxml-14">
          <mxGeometry x="30" y="25" width="60" height="30" as="geometry" />
        </mxCell>
        <mxCell id="Mj05zwDxuwMNoxbGGxml-17" value="" style="endArrow=none;html=1;rounded=0;exitX=0.5;exitY=0;exitDx=0;exitDy=0;entryX=0.5;entryY=1;entryDx=0;entryDy=0;" edge="1" parent="1" source="Mj05zwDxuwMNoxbGGxml-15" target="Mj05zwDxuwMNoxbGGxml-12">
          <mxGeometry width="50" height="50" relative="1" as="geometry">
            <mxPoint x="700" y="380" as="sourcePoint" />
            <mxPoint x="750" y="330" as="targetPoint" />
          </mxGeometry>
        </mxCell>
        <mxCell id="Mj05zwDxuwMNoxbGGxml-18" value="" style="endArrow=none;html=1;rounded=0;exitX=1;exitY=0.5;exitDx=0;exitDy=0;entryX=0;entryY=0.25;entryDx=0;entryDy=0;" edge="1" parent="1" source="Mj05zwDxuwMNoxbGGxml-9" target="Mj05zwDxuwMNoxbGGxml-12">
          <mxGeometry width="50" height="50" relative="1" as="geometry">
            <mxPoint x="700" y="380" as="sourcePoint" />
            <mxPoint x="750" y="330" as="targetPoint" />
          </mxGeometry>
        </mxCell>
        <mxCell id="Mj05zwDxuwMNoxbGGxml-19" value="" style="endArrow=none;html=1;rounded=0;exitX=0.5;exitY=1;exitDx=0;exitDy=0;entryX=0.5;entryY=0;entryDx=0;entryDy=0;" edge="1" parent="1" source="Mj05zwDxuwMNoxbGGxml-6" target="Mj05zwDxuwMNoxbGGxml-12">
          <mxGeometry width="50" height="50" relative="1" as="geometry">
            <mxPoint x="700" y="380" as="sourcePoint" />
            <mxPoint x="750" y="330" as="targetPoint" />
          </mxGeometry>
        </mxCell>
        <mxCell id="Mj05zwDxuwMNoxbGGxml-32" value="" style="group" vertex="1" connectable="0" parent="1">
          <mxGeometry x="470" y="100" width="120" height="80" as="geometry" />
        </mxCell>
        <mxCell id="Mj05zwDxuwMNoxbGGxml-33" value="" style="ellipse;whiteSpace=wrap;html=1;" vertex="1" parent="Mj05zwDxuwMNoxbGGxml-32">
          <mxGeometry width="120" height="80" as="geometry" />
        </mxCell>
        <mxCell id="Mj05zwDxuwMNoxbGGxml-34" value="PhoneNumber" style="text;html=1;align=center;verticalAlign=middle;whiteSpace=wrap;rounded=0;" vertex="1" parent="Mj05zwDxuwMNoxbGGxml-32">
          <mxGeometry x="30" y="25" width="60" height="30" as="geometry" />
        </mxCell>
        <mxCell id="Mj05zwDxuwMNoxbGGxml-35" value="" style="endArrow=none;html=1;rounded=0;exitX=0.5;exitY=1;exitDx=0;exitDy=0;entryX=0.5;entryY=0;entryDx=0;entryDy=0;" edge="1" parent="1" source="Mj05zwDxuwMNoxbGGxml-33" target="Mj05zwDxuwMNoxbGGxml-12">
          <mxGeometry width="50" height="50" relative="1" as="geometry">
            <mxPoint x="700" y="180" as="sourcePoint" />
            <mxPoint x="750" y="130" as="targetPoint" />
          </mxGeometry>
        </mxCell>
        <mxCell id="Mj05zwDxuwMNoxbGGxml-39" value="" style="group" vertex="1" connectable="0" parent="1">
          <mxGeometry x="820" y="100" width="120" height="60" as="geometry" />
        </mxCell>
        <mxCell id="Mj05zwDxuwMNoxbGGxml-40" value="" style="rounded=1;whiteSpace=wrap;html=1;" vertex="1" parent="Mj05zwDxuwMNoxbGGxml-39">
          <mxGeometry width="120" height="60" as="geometry" />
        </mxCell>
        <mxCell id="Mj05zwDxuwMNoxbGGxml-41" value="Order" style="text;html=1;align=center;verticalAlign=middle;whiteSpace=wrap;rounded=0;" vertex="1" parent="Mj05zwDxuwMNoxbGGxml-39">
          <mxGeometry x="30" y="15" width="60" height="30" as="geometry" />
        </mxCell>
        <mxCell id="Mj05zwDxuwMNoxbGGxml-42" value="" style="group" vertex="1" connectable="0" parent="1">
          <mxGeometry x="740" y="-20" width="120" height="80" as="geometry" />
        </mxCell>
        <mxCell id="Mj05zwDxuwMNoxbGGxml-43" value="" style="ellipse;whiteSpace=wrap;html=1;" vertex="1" parent="Mj05zwDxuwMNoxbGGxml-42">
          <mxGeometry width="120" height="80" as="geometry" />
        </mxCell>
        <mxCell id="Mj05zwDxuwMNoxbGGxml-44" value="&lt;u&gt;OrderID&lt;/u&gt;" style="text;html=1;align=center;verticalAlign=middle;whiteSpace=wrap;rounded=0;" vertex="1" parent="Mj05zwDxuwMNoxbGGxml-42">
          <mxGeometry x="30" y="25" width="60" height="30" as="geometry" />
        </mxCell>
        <mxCell id="Mj05zwDxuwMNoxbGGxml-47" value="" style="group" vertex="1" connectable="0" parent="1">
          <mxGeometry x="870" y="-30" width="120" height="80" as="geometry" />
        </mxCell>
        <mxCell id="Mj05zwDxuwMNoxbGGxml-45" value="" style="ellipse;whiteSpace=wrap;html=1;" vertex="1" parent="Mj05zwDxuwMNoxbGGxml-47">
          <mxGeometry width="120" height="80" as="geometry" />
        </mxCell>
        <mxCell id="Mj05zwDxuwMNoxbGGxml-46" value="OrderDate" style="text;html=1;align=center;verticalAlign=middle;whiteSpace=wrap;rounded=0;" vertex="1" parent="Mj05zwDxuwMNoxbGGxml-47">
          <mxGeometry x="30" y="25" width="60" height="30" as="geometry" />
        </mxCell>
        <mxCell id="Mj05zwDxuwMNoxbGGxml-50" value="" style="group" vertex="1" connectable="0" parent="1">
          <mxGeometry x="1000" y="-40" width="120" height="80" as="geometry" />
        </mxCell>
        <mxCell id="Mj05zwDxuwMNoxbGGxml-48" value="" style="ellipse;whiteSpace=wrap;html=1;" vertex="1" parent="Mj05zwDxuwMNoxbGGxml-50">
          <mxGeometry width="120" height="80" as="geometry" />
        </mxCell>
        <mxCell id="Mj05zwDxuwMNoxbGGxml-49" value="TotalAmount" style="text;html=1;align=center;verticalAlign=middle;whiteSpace=wrap;rounded=0;" vertex="1" parent="Mj05zwDxuwMNoxbGGxml-50">
          <mxGeometry x="30" y="25" width="60" height="30" as="geometry" />
        </mxCell>
        <mxCell id="Mj05zwDxuwMNoxbGGxml-51" value="" style="group" vertex="1" connectable="0" parent="1">
          <mxGeometry x="600" width="120" height="80" as="geometry" />
        </mxCell>
        <mxCell id="Mj05zwDxuwMNoxbGGxml-52" value="" style="ellipse;whiteSpace=wrap;html=1;" vertex="1" parent="Mj05zwDxuwMNoxbGGxml-51">
          <mxGeometry width="120" height="80" as="geometry" />
        </mxCell>
        <mxCell id="Mj05zwDxuwMNoxbGGxml-53" value="CustomerID (FK)" style="text;html=1;align=center;verticalAlign=middle;whiteSpace=wrap;rounded=0;" vertex="1" parent="Mj05zwDxuwMNoxbGGxml-51">
          <mxGeometry x="30" y="25" width="60" height="30" as="geometry" />
        </mxCell>
        <mxCell id="Mj05zwDxuwMNoxbGGxml-54" value="" style="endArrow=none;html=1;rounded=0;exitX=1;exitY=1;exitDx=0;exitDy=0;entryX=0;entryY=0.25;entryDx=0;entryDy=0;" edge="1" parent="1" source="Mj05zwDxuwMNoxbGGxml-52" target="Mj05zwDxuwMNoxbGGxml-40">
          <mxGeometry width="50" height="50" relative="1" as="geometry">
            <mxPoint x="870" y="260" as="sourcePoint" />
            <mxPoint x="920" y="210" as="targetPoint" />
          </mxGeometry>
        </mxCell>
        <mxCell id="Mj05zwDxuwMNoxbGGxml-55" value="" style="endArrow=none;html=1;rounded=0;exitX=0.5;exitY=1;exitDx=0;exitDy=0;entryX=0.25;entryY=0;entryDx=0;entryDy=0;" edge="1" parent="1" source="Mj05zwDxuwMNoxbGGxml-43" target="Mj05zwDxuwMNoxbGGxml-40">
          <mxGeometry width="50" height="50" relative="1" as="geometry">
            <mxPoint x="870" y="260" as="sourcePoint" />
            <mxPoint x="920" y="210" as="targetPoint" />
          </mxGeometry>
        </mxCell>
        <mxCell id="Mj05zwDxuwMNoxbGGxml-57" value="" style="endArrow=none;html=1;rounded=0;exitX=0.5;exitY=1;exitDx=0;exitDy=0;entryX=0.5;entryY=0;entryDx=0;entryDy=0;" edge="1" parent="1" source="Mj05zwDxuwMNoxbGGxml-45" target="Mj05zwDxuwMNoxbGGxml-40">
          <mxGeometry width="50" height="50" relative="1" as="geometry">
            <mxPoint x="870" y="260" as="sourcePoint" />
            <mxPoint x="920" y="210" as="targetPoint" />
          </mxGeometry>
        </mxCell>
        <mxCell id="Mj05zwDxuwMNoxbGGxml-58" value="" style="endArrow=none;html=1;rounded=0;exitX=0.5;exitY=1;exitDx=0;exitDy=0;entryX=0.75;entryY=0;entryDx=0;entryDy=0;" edge="1" parent="1" source="Mj05zwDxuwMNoxbGGxml-48" target="Mj05zwDxuwMNoxbGGxml-40">
          <mxGeometry width="50" height="50" relative="1" as="geometry">
            <mxPoint x="870" y="260" as="sourcePoint" />
            <mxPoint x="920" y="210" as="targetPoint" />
          </mxGeometry>
        </mxCell>
        <mxCell id="Mj05zwDxuwMNoxbGGxml-63" value="" style="shape=ext;double=1;rounded=1;whiteSpace=wrap;html=1;" vertex="1" parent="1">
          <mxGeometry x="800" y="260" width="120" height="80" as="geometry" />
        </mxCell>
        <mxCell id="Mj05zwDxuwMNoxbGGxml-64" value="ShippingAddress" style="text;html=1;align=center;verticalAlign=middle;whiteSpace=wrap;rounded=0;" vertex="1" parent="1">
          <mxGeometry x="830" y="285" width="60" height="30" as="geometry" />
        </mxCell>
        <mxCell id="Mj05zwDxuwMNoxbGGxml-66" value="" style="group" vertex="1" connectable="0" parent="1">
          <mxGeometry x="940" y="160" width="120" height="80" as="geometry" />
        </mxCell>
        <mxCell id="Mj05zwDxuwMNoxbGGxml-67" value="" style="ellipse;whiteSpace=wrap;html=1;" vertex="1" parent="Mj05zwDxuwMNoxbGGxml-66">
          <mxGeometry width="120" height="80" as="geometry" />
        </mxCell>
        <mxCell id="Mj05zwDxuwMNoxbGGxml-68" value="&lt;u&gt;ShippingAddressID&lt;/u&gt;" style="text;html=1;align=center;verticalAlign=middle;whiteSpace=wrap;rounded=0;" vertex="1" parent="Mj05zwDxuwMNoxbGGxml-66">
          <mxGeometry x="30" y="25" width="60" height="30" as="geometry" />
        </mxCell>
        <mxCell id="Mj05zwDxuwMNoxbGGxml-69" value="" style="group" vertex="1" connectable="0" parent="1">
          <mxGeometry x="970" y="260" width="120" height="80" as="geometry" />
        </mxCell>
        <mxCell id="Mj05zwDxuwMNoxbGGxml-70" value="" style="ellipse;whiteSpace=wrap;html=1;" vertex="1" parent="Mj05zwDxuwMNoxbGGxml-69">
          <mxGeometry width="120" height="80" as="geometry" />
        </mxCell>
        <mxCell id="Mj05zwDxuwMNoxbGGxml-71" value="CustomerID (FK)" style="text;html=1;align=center;verticalAlign=middle;whiteSpace=wrap;rounded=0;" vertex="1" parent="Mj05zwDxuwMNoxbGGxml-69">
          <mxGeometry x="30" y="25" width="60" height="30" as="geometry" />
        </mxCell>
        <mxCell id="Mj05zwDxuwMNoxbGGxml-73" value="" style="group" vertex="1" connectable="0" parent="1">
          <mxGeometry x="910" y="350" width="120" height="80" as="geometry" />
        </mxCell>
        <mxCell id="Mj05zwDxuwMNoxbGGxml-74" value="" style="ellipse;whiteSpace=wrap;html=1;" vertex="1" parent="Mj05zwDxuwMNoxbGGxml-73">
          <mxGeometry width="120" height="80" as="geometry" />
        </mxCell>
        <mxCell id="Mj05zwDxuwMNoxbGGxml-75" value="(Address)" style="text;html=1;align=center;verticalAlign=middle;whiteSpace=wrap;rounded=0;" vertex="1" parent="Mj05zwDxuwMNoxbGGxml-73">
          <mxGeometry x="30" y="25" width="60" height="30" as="geometry" />
        </mxCell>
        <mxCell id="Mj05zwDxuwMNoxbGGxml-77" value="" style="group" vertex="1" connectable="0" parent="1">
          <mxGeometry x="1110" y="350" width="120" height="80" as="geometry" />
        </mxCell>
        <mxCell id="Mj05zwDxuwMNoxbGGxml-78" value="" style="ellipse;whiteSpace=wrap;html=1;" vertex="1" parent="Mj05zwDxuwMNoxbGGxml-77">
          <mxGeometry width="120" height="80" as="geometry" />
        </mxCell>
        <mxCell id="Mj05zwDxuwMNoxbGGxml-79" value="State" style="text;html=1;align=center;verticalAlign=middle;whiteSpace=wrap;rounded=0;" vertex="1" parent="Mj05zwDxuwMNoxbGGxml-77">
          <mxGeometry x="30" y="25" width="60" height="30" as="geometry" />
        </mxCell>
        <mxCell id="Mj05zwDxuwMNoxbGGxml-80" value="" style="group" vertex="1" connectable="0" parent="1">
          <mxGeometry x="1020" y="430" width="120" height="80" as="geometry" />
        </mxCell>
        <mxCell id="Mj05zwDxuwMNoxbGGxml-81" value="" style="ellipse;whiteSpace=wrap;html=1;" vertex="1" parent="Mj05zwDxuwMNoxbGGxml-80">
          <mxGeometry width="120" height="80" as="geometry" />
        </mxCell>
        <mxCell id="Mj05zwDxuwMNoxbGGxml-82" value="Street" style="text;html=1;align=center;verticalAlign=middle;whiteSpace=wrap;rounded=0;" vertex="1" parent="Mj05zwDxuwMNoxbGGxml-80">
          <mxGeometry x="30" y="25" width="60" height="30" as="geometry" />
        </mxCell>
        <mxCell id="Mj05zwDxuwMNoxbGGxml-83" value="" style="group" vertex="1" connectable="0" parent="1">
          <mxGeometry x="1121" y="240" width="120" height="80" as="geometry" />
        </mxCell>
        <mxCell id="Mj05zwDxuwMNoxbGGxml-84" value="" style="ellipse;whiteSpace=wrap;html=1;" vertex="1" parent="Mj05zwDxuwMNoxbGGxml-83">
          <mxGeometry width="120" height="80" as="geometry" />
        </mxCell>
        <mxCell id="Mj05zwDxuwMNoxbGGxml-85" value="City" style="text;html=1;align=center;verticalAlign=middle;whiteSpace=wrap;rounded=0;" vertex="1" parent="Mj05zwDxuwMNoxbGGxml-83">
          <mxGeometry x="30" y="25" width="60" height="30" as="geometry" />
        </mxCell>
        <mxCell id="Mj05zwDxuwMNoxbGGxml-90" value="" style="endArrow=none;html=1;rounded=0;exitX=0;exitY=0.5;exitDx=0;exitDy=0;entryX=0.5;entryY=0;entryDx=0;entryDy=0;" edge="1" parent="1" source="Mj05zwDxuwMNoxbGGxml-67" target="Mj05zwDxuwMNoxbGGxml-63">
          <mxGeometry width="50" height="50" relative="1" as="geometry">
            <mxPoint x="1140" y="380" as="sourcePoint" />
            <mxPoint x="1190" y="330" as="targetPoint" />
          </mxGeometry>
        </mxCell>
        <mxCell id="Mj05zwDxuwMNoxbGGxml-92" value="" style="endArrow=none;html=1;rounded=0;exitX=1;exitY=0.5;exitDx=0;exitDy=0;entryX=0;entryY=0.5;entryDx=0;entryDy=0;" edge="1" parent="1" source="Mj05zwDxuwMNoxbGGxml-63" target="Mj05zwDxuwMNoxbGGxml-70">
          <mxGeometry width="50" height="50" relative="1" as="geometry">
            <mxPoint x="1140" y="380" as="sourcePoint" />
            <mxPoint x="1190" y="330" as="targetPoint" />
          </mxGeometry>
        </mxCell>
        <mxCell id="Mj05zwDxuwMNoxbGGxml-94" value="" style="endArrow=none;html=1;rounded=0;exitX=0;exitY=1;exitDx=0;exitDy=0;entryX=1;entryY=0.5;entryDx=0;entryDy=0;" edge="1" parent="1" source="Mj05zwDxuwMNoxbGGxml-84" target="Mj05zwDxuwMNoxbGGxml-74">
          <mxGeometry width="50" height="50" relative="1" as="geometry">
            <mxPoint x="1140" y="380" as="sourcePoint" />
            <mxPoint x="1190" y="330" as="targetPoint" />
          </mxGeometry>
        </mxCell>
        <mxCell id="Mj05zwDxuwMNoxbGGxml-95" value="" style="endArrow=none;html=1;rounded=0;exitX=0;exitY=0.5;exitDx=0;exitDy=0;entryX=1;entryY=0.5;entryDx=0;entryDy=0;" edge="1" parent="1" source="Mj05zwDxuwMNoxbGGxml-78" target="Mj05zwDxuwMNoxbGGxml-74">
          <mxGeometry width="50" height="50" relative="1" as="geometry">
            <mxPoint x="1140" y="380" as="sourcePoint" />
            <mxPoint x="1190" y="330" as="targetPoint" />
          </mxGeometry>
        </mxCell>
        <mxCell id="Mj05zwDxuwMNoxbGGxml-96" value="" style="endArrow=none;html=1;rounded=0;exitX=0;exitY=0;exitDx=0;exitDy=0;entryX=1;entryY=0.5;entryDx=0;entryDy=0;" edge="1" parent="1" source="Mj05zwDxuwMNoxbGGxml-81" target="Mj05zwDxuwMNoxbGGxml-74">
          <mxGeometry width="50" height="50" relative="1" as="geometry">
            <mxPoint x="1140" y="380" as="sourcePoint" />
            <mxPoint x="1190" y="330" as="targetPoint" />
          </mxGeometry>
        </mxCell>
        <mxCell id="Mj05zwDxuwMNoxbGGxml-97" value="" style="endArrow=none;html=1;rounded=0;exitX=0;exitY=0;exitDx=0;exitDy=0;entryX=0.75;entryY=1;entryDx=0;entryDy=0;" edge="1" parent="1" source="Mj05zwDxuwMNoxbGGxml-74" target="Mj05zwDxuwMNoxbGGxml-63">
          <mxGeometry width="50" height="50" relative="1" as="geometry">
            <mxPoint x="1140" y="380" as="sourcePoint" />
            <mxPoint x="1190" y="330" as="targetPoint" />
          </mxGeometry>
        </mxCell>
        <mxCell id="Mj05zwDxuwMNoxbGGxml-99" value="" style="endArrow=classic;html=1;rounded=0;exitX=1;exitY=0.25;exitDx=0;exitDy=0;entryX=0;entryY=0.5;entryDx=0;entryDy=0;" edge="1" parent="1" source="Mj05zwDxuwMNoxbGGxml-12" target="Mj05zwDxuwMNoxbGGxml-40">
          <mxGeometry width="50" height="50" relative="1" as="geometry">
            <mxPoint x="590" y="390" as="sourcePoint" />
            <mxPoint x="640" y="340" as="targetPoint" />
          </mxGeometry>
        </mxCell>
        <mxCell id="Mj05zwDxuwMNoxbGGxml-100" value="" style="endArrow=classic;html=1;rounded=0;exitX=1;exitY=0.5;exitDx=0;exitDy=0;entryX=0;entryY=0.5;entryDx=0;entryDy=0;" edge="1" parent="1" source="Mj05zwDxuwMNoxbGGxml-12" target="Mj05zwDxuwMNoxbGGxml-63">
          <mxGeometry width="50" height="50" relative="1" as="geometry">
            <mxPoint x="590" y="390" as="sourcePoint" />
            <mxPoint x="640" y="340" as="targetPoint" />
          </mxGeometry>
        </mxCell>
        <mxCell id="Mj05zwDxuwMNoxbGGxml-101" value="" style="endArrow=none;html=1;rounded=0;exitX=0;exitY=0.5;exitDx=0;exitDy=0;entryX=1;entryY=0.5;entryDx=0;entryDy=0;" edge="1" parent="1" source="Mj05zwDxuwMNoxbGGxml-112" target="Mj05zwDxuwMNoxbGGxml-103">
          <mxGeometry width="50" height="50" relative="1" as="geometry">
            <mxPoint x="499" y="690" as="sourcePoint" />
            <mxPoint x="669" y="620" as="targetPoint" />
          </mxGeometry>
        </mxCell>
        <mxCell id="Mj05zwDxuwMNoxbGGxml-102" value="" style="group" vertex="1" connectable="0" parent="1">
          <mxGeometry x="120" y="600" width="120" height="80" as="geometry" />
        </mxCell>
        <mxCell id="Mj05zwDxuwMNoxbGGxml-103" value="" style="ellipse;whiteSpace=wrap;html=1;" vertex="1" parent="Mj05zwDxuwMNoxbGGxml-102">
          <mxGeometry width="120" height="80" as="geometry" />
        </mxCell>
        <mxCell id="Mj05zwDxuwMNoxbGGxml-104" value="&lt;u&gt;ProductID&lt;/u&gt;" style="text;html=1;align=center;verticalAlign=middle;whiteSpace=wrap;rounded=0;" vertex="1" parent="Mj05zwDxuwMNoxbGGxml-102">
          <mxGeometry x="30" y="25" width="60" height="30" as="geometry" />
        </mxCell>
        <mxCell id="Mj05zwDxuwMNoxbGGxml-105" value="" style="group" vertex="1" connectable="0" parent="1">
          <mxGeometry x="320" y="490" width="120" height="80" as="geometry" />
        </mxCell>
        <mxCell id="Mj05zwDxuwMNoxbGGxml-106" value="" style="ellipse;whiteSpace=wrap;html=1;" vertex="1" parent="Mj05zwDxuwMNoxbGGxml-105">
          <mxGeometry width="120" height="80" as="geometry" />
        </mxCell>
        <mxCell id="Mj05zwDxuwMNoxbGGxml-107" value="Name" style="text;html=1;align=center;verticalAlign=middle;whiteSpace=wrap;rounded=0;" vertex="1" parent="Mj05zwDxuwMNoxbGGxml-105">
          <mxGeometry x="30" y="25" width="60" height="30" as="geometry" />
        </mxCell>
        <mxCell id="Mj05zwDxuwMNoxbGGxml-108" value="" style="group" vertex="1" connectable="0" parent="1">
          <mxGeometry x="160" y="510" width="120" height="80" as="geometry" />
        </mxCell>
        <mxCell id="Mj05zwDxuwMNoxbGGxml-109" value="" style="ellipse;whiteSpace=wrap;html=1;" vertex="1" parent="Mj05zwDxuwMNoxbGGxml-108">
          <mxGeometry width="120" height="80" as="geometry" />
        </mxCell>
        <mxCell id="Mj05zwDxuwMNoxbGGxml-110" value="Price" style="text;html=1;align=center;verticalAlign=middle;whiteSpace=wrap;rounded=0;" vertex="1" parent="Mj05zwDxuwMNoxbGGxml-108">
          <mxGeometry x="30" y="25" width="60" height="30" as="geometry" />
        </mxCell>
        <mxCell id="Mj05zwDxuwMNoxbGGxml-111" value="" style="group" vertex="1" connectable="0" parent="1">
          <mxGeometry x="469" y="660" width="120" height="60" as="geometry" />
        </mxCell>
        <mxCell id="Mj05zwDxuwMNoxbGGxml-112" value="" style="rounded=1;whiteSpace=wrap;html=1;" vertex="1" parent="Mj05zwDxuwMNoxbGGxml-111">
          <mxGeometry width="120" height="60" as="geometry" />
        </mxCell>
        <mxCell id="Mj05zwDxuwMNoxbGGxml-113" value="Product" style="text;html=1;align=center;verticalAlign=middle;whiteSpace=wrap;rounded=0;" vertex="1" parent="Mj05zwDxuwMNoxbGGxml-111">
          <mxGeometry x="30" y="15" width="60" height="30" as="geometry" />
        </mxCell>
        <mxCell id="Mj05zwDxuwMNoxbGGxml-114" value="" style="group" vertex="1" connectable="0" parent="1">
          <mxGeometry x="130" y="690" width="120" height="80" as="geometry" />
        </mxCell>
        <mxCell id="Mj05zwDxuwMNoxbGGxml-115" value="" style="ellipse;whiteSpace=wrap;html=1;" vertex="1" parent="Mj05zwDxuwMNoxbGGxml-114">
          <mxGeometry width="120" height="80" as="geometry" />
        </mxCell>
        <mxCell id="Mj05zwDxuwMNoxbGGxml-116" value="Description" style="text;html=1;align=center;verticalAlign=middle;whiteSpace=wrap;rounded=0;" vertex="1" parent="Mj05zwDxuwMNoxbGGxml-114">
          <mxGeometry x="30" y="25" width="60" height="30" as="geometry" />
        </mxCell>
        <mxCell id="Mj05zwDxuwMNoxbGGxml-117" value="" style="endArrow=none;html=1;rounded=0;exitX=1;exitY=0.5;exitDx=0;exitDy=0;entryX=0.5;entryY=1;entryDx=0;entryDy=0;" edge="1" parent="1" source="Mj05zwDxuwMNoxbGGxml-115" target="Mj05zwDxuwMNoxbGGxml-112">
          <mxGeometry width="50" height="50" relative="1" as="geometry">
            <mxPoint x="619" y="770" as="sourcePoint" />
            <mxPoint x="669" y="720" as="targetPoint" />
          </mxGeometry>
        </mxCell>
        <mxCell id="Mj05zwDxuwMNoxbGGxml-118" value="" style="endArrow=none;html=1;rounded=0;exitX=1;exitY=0.5;exitDx=0;exitDy=0;entryX=0;entryY=0.25;entryDx=0;entryDy=0;" edge="1" parent="1" source="Mj05zwDxuwMNoxbGGxml-109" target="Mj05zwDxuwMNoxbGGxml-112">
          <mxGeometry width="50" height="50" relative="1" as="geometry">
            <mxPoint x="619" y="770" as="sourcePoint" />
            <mxPoint x="669" y="720" as="targetPoint" />
          </mxGeometry>
        </mxCell>
        <mxCell id="Mj05zwDxuwMNoxbGGxml-119" value="" style="endArrow=none;html=1;rounded=0;exitX=0.5;exitY=1;exitDx=0;exitDy=0;entryX=0.5;entryY=0;entryDx=0;entryDy=0;" edge="1" parent="1" source="Mj05zwDxuwMNoxbGGxml-106" target="Mj05zwDxuwMNoxbGGxml-112">
          <mxGeometry width="50" height="50" relative="1" as="geometry">
            <mxPoint x="619" y="770" as="sourcePoint" />
            <mxPoint x="669" y="720" as="targetPoint" />
          </mxGeometry>
        </mxCell>
        <mxCell id="Mj05zwDxuwMNoxbGGxml-120" value="" style="group" vertex="1" connectable="0" parent="1">
          <mxGeometry x="450" y="460" width="120" height="80" as="geometry" />
        </mxCell>
        <mxCell id="Mj05zwDxuwMNoxbGGxml-121" value="" style="ellipse;whiteSpace=wrap;html=1;" vertex="1" parent="Mj05zwDxuwMNoxbGGxml-120">
          <mxGeometry width="120" height="80" as="geometry" />
        </mxCell>
        <mxCell id="Mj05zwDxuwMNoxbGGxml-122" value="InventoryLevel" style="text;html=1;align=center;verticalAlign=middle;whiteSpace=wrap;rounded=0;" vertex="1" parent="Mj05zwDxuwMNoxbGGxml-120">
          <mxGeometry x="30" y="25" width="60" height="30" as="geometry" />
        </mxCell>
        <mxCell id="Mj05zwDxuwMNoxbGGxml-123" value="" style="endArrow=none;html=1;rounded=0;exitX=0.5;exitY=1;exitDx=0;exitDy=0;entryX=0.5;entryY=0;entryDx=0;entryDy=0;" edge="1" parent="1" source="Mj05zwDxuwMNoxbGGxml-121" target="Mj05zwDxuwMNoxbGGxml-112">
          <mxGeometry width="50" height="50" relative="1" as="geometry">
            <mxPoint x="619" y="570" as="sourcePoint" />
            <mxPoint x="669" y="520" as="targetPoint" />
          </mxGeometry>
        </mxCell>
        <mxCell id="Mj05zwDxuwMNoxbGGxml-124" value="" style="group" vertex="1" connectable="0" parent="1">
          <mxGeometry x="400" y="775" width="120" height="80" as="geometry" />
        </mxCell>
        <mxCell id="Mj05zwDxuwMNoxbGGxml-125" value="" style="ellipse;whiteSpace=wrap;html=1;" vertex="1" parent="Mj05zwDxuwMNoxbGGxml-124">
          <mxGeometry width="120" height="80" as="geometry" />
        </mxCell>
        <mxCell id="Mj05zwDxuwMNoxbGGxml-126" value="CategoryID (FK)" style="text;html=1;align=center;verticalAlign=middle;whiteSpace=wrap;rounded=0;" vertex="1" parent="Mj05zwDxuwMNoxbGGxml-124">
          <mxGeometry x="30" y="25" width="60" height="30" as="geometry" />
        </mxCell>
        <mxCell id="Mj05zwDxuwMNoxbGGxml-129" value="" style="endArrow=none;html=1;rounded=0;exitX=0.5;exitY=0;exitDx=0;exitDy=0;entryX=0.5;entryY=1;entryDx=0;entryDy=0;" edge="1" parent="1" source="Mj05zwDxuwMNoxbGGxml-127" target="Mj05zwDxuwMNoxbGGxml-112">
          <mxGeometry width="50" height="50" relative="1" as="geometry">
            <mxPoint x="590" y="670" as="sourcePoint" />
            <mxPoint x="640" y="620" as="targetPoint" />
          </mxGeometry>
        </mxCell>
        <mxCell id="Mj05zwDxuwMNoxbGGxml-130" value="" style="endArrow=none;html=1;rounded=0;exitX=0.5;exitY=0;exitDx=0;exitDy=0;entryX=0.5;entryY=1;entryDx=0;entryDy=0;" edge="1" parent="1" source="Mj05zwDxuwMNoxbGGxml-125" target="Mj05zwDxuwMNoxbGGxml-112">
          <mxGeometry width="50" height="50" relative="1" as="geometry">
            <mxPoint x="590" y="670" as="sourcePoint" />
            <mxPoint x="640" y="620" as="targetPoint" />
          </mxGeometry>
        </mxCell>
        <mxCell id="Mj05zwDxuwMNoxbGGxml-131" value="" style="group" vertex="1" connectable="0" parent="1">
          <mxGeometry x="860" y="650" width="120" height="60" as="geometry" />
        </mxCell>
        <mxCell id="Mj05zwDxuwMNoxbGGxml-132" value="" style="rounded=1;whiteSpace=wrap;html=1;" vertex="1" parent="Mj05zwDxuwMNoxbGGxml-131">
          <mxGeometry width="120" height="60" as="geometry" />
        </mxCell>
        <mxCell id="Mj05zwDxuwMNoxbGGxml-133" value="Review" style="text;html=1;align=center;verticalAlign=middle;whiteSpace=wrap;rounded=0;" vertex="1" parent="Mj05zwDxuwMNoxbGGxml-131">
          <mxGeometry x="30" y="15" width="60" height="30" as="geometry" />
        </mxCell>
        <mxCell id="Mj05zwDxuwMNoxbGGxml-134" value="" style="group" vertex="1" connectable="0" parent="1">
          <mxGeometry x="1090" y="560" width="120" height="80" as="geometry" />
        </mxCell>
        <mxCell id="Mj05zwDxuwMNoxbGGxml-135" value="" style="ellipse;whiteSpace=wrap;html=1;" vertex="1" parent="Mj05zwDxuwMNoxbGGxml-134">
          <mxGeometry width="120" height="80" as="geometry" />
        </mxCell>
        <mxCell id="Mj05zwDxuwMNoxbGGxml-136" value="Rating" style="text;html=1;align=center;verticalAlign=middle;whiteSpace=wrap;rounded=0;" vertex="1" parent="Mj05zwDxuwMNoxbGGxml-134">
          <mxGeometry x="30" y="25" width="60" height="30" as="geometry" />
        </mxCell>
        <mxCell id="Mj05zwDxuwMNoxbGGxml-137" value="" style="group" vertex="1" connectable="0" parent="1">
          <mxGeometry x="950" y="540" width="120" height="80" as="geometry" />
        </mxCell>
        <mxCell id="Mj05zwDxuwMNoxbGGxml-138" value="" style="ellipse;whiteSpace=wrap;html=1;" vertex="1" parent="Mj05zwDxuwMNoxbGGxml-137">
          <mxGeometry width="120" height="80" as="geometry" />
        </mxCell>
        <mxCell id="Mj05zwDxuwMNoxbGGxml-139" value="&lt;u&gt;ReviewID&lt;/u&gt;" style="text;html=1;align=center;verticalAlign=middle;whiteSpace=wrap;rounded=0;" vertex="1" parent="Mj05zwDxuwMNoxbGGxml-137">
          <mxGeometry x="30" y="25" width="60" height="30" as="geometry" />
        </mxCell>
        <mxCell id="Mj05zwDxuwMNoxbGGxml-141" value="" style="group" vertex="1" connectable="0" parent="1">
          <mxGeometry x="1040" y="660" width="120" height="80" as="geometry" />
        </mxCell>
        <mxCell id="Mj05zwDxuwMNoxbGGxml-142" value="" style="ellipse;whiteSpace=wrap;html=1;" vertex="1" parent="Mj05zwDxuwMNoxbGGxml-141">
          <mxGeometry width="120" height="80" as="geometry" />
        </mxCell>
        <mxCell id="Mj05zwDxuwMNoxbGGxml-143" value="Comment" style="text;html=1;align=center;verticalAlign=middle;whiteSpace=wrap;rounded=0;" vertex="1" parent="Mj05zwDxuwMNoxbGGxml-141">
          <mxGeometry x="30" y="25" width="60" height="30" as="geometry" />
        </mxCell>
        <mxCell id="Mj05zwDxuwMNoxbGGxml-144" value="" style="group" vertex="1" connectable="0" parent="1">
          <mxGeometry x="890" y="750" width="120" height="80" as="geometry" />
        </mxCell>
        <mxCell id="Mj05zwDxuwMNoxbGGxml-145" value="" style="ellipse;whiteSpace=wrap;html=1;" vertex="1" parent="Mj05zwDxuwMNoxbGGxml-144">
          <mxGeometry width="120" height="80" as="geometry" />
        </mxCell>
        <mxCell id="Mj05zwDxuwMNoxbGGxml-146" value="ProductID (FK)" style="text;html=1;align=center;verticalAlign=middle;whiteSpace=wrap;rounded=0;" vertex="1" parent="Mj05zwDxuwMNoxbGGxml-144">
          <mxGeometry x="30" y="25" width="60" height="30" as="geometry" />
        </mxCell>
        <mxCell id="Mj05zwDxuwMNoxbGGxml-148" value="" style="group" vertex="1" connectable="0" parent="1">
          <mxGeometry x="1040" y="760" width="120" height="80" as="geometry" />
        </mxCell>
        <mxCell id="Mj05zwDxuwMNoxbGGxml-149" value="" style="ellipse;whiteSpace=wrap;html=1;" vertex="1" parent="Mj05zwDxuwMNoxbGGxml-148">
          <mxGeometry width="120" height="80" as="geometry" />
        </mxCell>
        <mxCell id="Mj05zwDxuwMNoxbGGxml-150" value="CustomerID (FK)" style="text;html=1;align=center;verticalAlign=middle;whiteSpace=wrap;rounded=0;" vertex="1" parent="Mj05zwDxuwMNoxbGGxml-148">
          <mxGeometry x="30" y="25" width="60" height="30" as="geometry" />
        </mxCell>
        <mxCell id="Mj05zwDxuwMNoxbGGxml-151" value="" style="endArrow=none;html=1;rounded=0;entryX=0.5;entryY=1;entryDx=0;entryDy=0;exitX=0.75;exitY=0;exitDx=0;exitDy=0;" edge="1" parent="1" source="Mj05zwDxuwMNoxbGGxml-132" target="Mj05zwDxuwMNoxbGGxml-138">
          <mxGeometry width="50" height="50" relative="1" as="geometry">
            <mxPoint x="590" y="810" as="sourcePoint" />
            <mxPoint x="640" y="760" as="targetPoint" />
          </mxGeometry>
        </mxCell>
        <mxCell id="Mj05zwDxuwMNoxbGGxml-152" value="" style="endArrow=none;html=1;rounded=0;exitX=1;exitY=0.25;exitDx=0;exitDy=0;entryX=0;entryY=1;entryDx=0;entryDy=0;" edge="1" parent="1" source="Mj05zwDxuwMNoxbGGxml-132" target="Mj05zwDxuwMNoxbGGxml-135">
          <mxGeometry width="50" height="50" relative="1" as="geometry">
            <mxPoint x="590" y="670" as="sourcePoint" />
            <mxPoint x="1100" y="630" as="targetPoint" />
          </mxGeometry>
        </mxCell>
        <mxCell id="Mj05zwDxuwMNoxbGGxml-153" value="" style="endArrow=none;html=1;rounded=0;entryX=0;entryY=0.5;entryDx=0;entryDy=0;exitX=1;exitY=0.5;exitDx=0;exitDy=0;" edge="1" parent="1" source="Mj05zwDxuwMNoxbGGxml-132" target="Mj05zwDxuwMNoxbGGxml-142">
          <mxGeometry width="50" height="50" relative="1" as="geometry">
            <mxPoint x="590" y="670" as="sourcePoint" />
            <mxPoint x="640" y="620" as="targetPoint" />
          </mxGeometry>
        </mxCell>
        <mxCell id="Mj05zwDxuwMNoxbGGxml-154" value="" style="endArrow=none;html=1;rounded=0;entryX=0;entryY=0;entryDx=0;entryDy=0;exitX=0.75;exitY=1;exitDx=0;exitDy=0;" edge="1" parent="1" source="Mj05zwDxuwMNoxbGGxml-132" target="Mj05zwDxuwMNoxbGGxml-149">
          <mxGeometry width="50" height="50" relative="1" as="geometry">
            <mxPoint x="590" y="670" as="sourcePoint" />
            <mxPoint x="640" y="620" as="targetPoint" />
          </mxGeometry>
        </mxCell>
        <mxCell id="Mj05zwDxuwMNoxbGGxml-155" value="" style="endArrow=none;html=1;rounded=0;entryX=0.5;entryY=0;entryDx=0;entryDy=0;exitX=0.5;exitY=1;exitDx=0;exitDy=0;" edge="1" parent="1" source="Mj05zwDxuwMNoxbGGxml-132" target="Mj05zwDxuwMNoxbGGxml-145">
          <mxGeometry width="50" height="50" relative="1" as="geometry">
            <mxPoint x="590" y="670" as="sourcePoint" />
            <mxPoint x="640" y="620" as="targetPoint" />
          </mxGeometry>
        </mxCell>
        <mxCell id="Mj05zwDxuwMNoxbGGxml-156" value="" style="endArrow=classic;html=1;rounded=0;exitX=1;exitY=0.5;exitDx=0;exitDy=0;entryX=0;entryY=0.5;entryDx=0;entryDy=0;" edge="1" parent="1" source="Mj05zwDxuwMNoxbGGxml-112" target="Mj05zwDxuwMNoxbGGxml-132">
          <mxGeometry width="50" height="50" relative="1" as="geometry">
            <mxPoint x="590" y="530" as="sourcePoint" />
            <mxPoint x="640" y="480" as="targetPoint" />
          </mxGeometry>
        </mxCell>
        <mxCell id="Mj05zwDxuwMNoxbGGxml-157" value="" style="endArrow=classic;html=1;rounded=0;exitX=1;exitY=0.75;exitDx=0;exitDy=0;entryX=0;entryY=0.25;entryDx=0;entryDy=0;" edge="1" parent="1" source="Mj05zwDxuwMNoxbGGxml-12" target="Mj05zwDxuwMNoxbGGxml-132">
          <mxGeometry width="50" height="50" relative="1" as="geometry">
            <mxPoint x="590" y="530" as="sourcePoint" />
            <mxPoint x="640" y="480" as="targetPoint" />
          </mxGeometry>
        </mxCell>
        <mxCell id="Mj05zwDxuwMNoxbGGxml-159" value="" style="group" vertex="1" connectable="0" parent="1">
          <mxGeometry x="870" y="875" width="120" height="60" as="geometry" />
        </mxCell>
        <mxCell id="Mj05zwDxuwMNoxbGGxml-160" value="" style="rounded=1;whiteSpace=wrap;html=1;" vertex="1" parent="Mj05zwDxuwMNoxbGGxml-159">
          <mxGeometry width="120" height="60" as="geometry" />
        </mxCell>
        <mxCell id="Mj05zwDxuwMNoxbGGxml-161" value="Category" style="text;html=1;align=center;verticalAlign=middle;whiteSpace=wrap;rounded=0;" vertex="1" parent="Mj05zwDxuwMNoxbGGxml-159">
          <mxGeometry x="30" y="15" width="60" height="30" as="geometry" />
        </mxCell>
        <mxCell id="Mj05zwDxuwMNoxbGGxml-162" value="" style="group" vertex="1" connectable="0" parent="1">
          <mxGeometry x="1020" y="855" width="120" height="80" as="geometry" />
        </mxCell>
        <mxCell id="Mj05zwDxuwMNoxbGGxml-163" value="" style="ellipse;whiteSpace=wrap;html=1;" vertex="1" parent="Mj05zwDxuwMNoxbGGxml-162">
          <mxGeometry width="120" height="80" as="geometry" />
        </mxCell>
        <mxCell id="Mj05zwDxuwMNoxbGGxml-164" value="&lt;u&gt;CategoryID&lt;/u&gt;" style="text;html=1;align=center;verticalAlign=middle;whiteSpace=wrap;rounded=0;" vertex="1" parent="Mj05zwDxuwMNoxbGGxml-162">
          <mxGeometry x="30" y="25" width="60" height="30" as="geometry" />
        </mxCell>
        <mxCell id="Mj05zwDxuwMNoxbGGxml-165" value="" style="group" vertex="1" connectable="0" parent="1">
          <mxGeometry x="1030" y="950" width="120" height="80" as="geometry" />
        </mxCell>
        <mxCell id="Mj05zwDxuwMNoxbGGxml-166" value="" style="ellipse;whiteSpace=wrap;html=1;" vertex="1" parent="Mj05zwDxuwMNoxbGGxml-165">
          <mxGeometry width="120" height="80" as="geometry" />
        </mxCell>
        <mxCell id="Mj05zwDxuwMNoxbGGxml-167" value="CategoryName" style="text;html=1;align=center;verticalAlign=middle;whiteSpace=wrap;rounded=0;" vertex="1" parent="Mj05zwDxuwMNoxbGGxml-165">
          <mxGeometry x="30" y="25" width="60" height="30" as="geometry" />
        </mxCell>
        <mxCell id="Mj05zwDxuwMNoxbGGxml-168" value="" style="endArrow=none;html=1;rounded=0;entryX=0;entryY=0.5;entryDx=0;entryDy=0;exitX=1;exitY=0.5;exitDx=0;exitDy=0;" edge="1" parent="1" source="Mj05zwDxuwMNoxbGGxml-160" target="Mj05zwDxuwMNoxbGGxml-163">
          <mxGeometry width="50" height="50" relative="1" as="geometry">
            <mxPoint x="590" y="810" as="sourcePoint" />
            <mxPoint x="640" y="760" as="targetPoint" />
          </mxGeometry>
        </mxCell>
        <mxCell id="Mj05zwDxuwMNoxbGGxml-169" value="" style="endArrow=none;html=1;rounded=0;entryX=0;entryY=0.5;entryDx=0;entryDy=0;exitX=1;exitY=0.5;exitDx=0;exitDy=0;" edge="1" parent="1" source="Mj05zwDxuwMNoxbGGxml-160" target="Mj05zwDxuwMNoxbGGxml-166">
          <mxGeometry width="50" height="50" relative="1" as="geometry">
            <mxPoint x="590" y="810" as="sourcePoint" />
            <mxPoint x="640" y="760" as="targetPoint" />
          </mxGeometry>
        </mxCell>
        <mxCell id="Mj05zwDxuwMNoxbGGxml-170" value="" style="endArrow=classic;html=1;rounded=0;exitX=1;exitY=0.5;exitDx=0;exitDy=0;entryX=0;entryY=0.5;entryDx=0;entryDy=0;" edge="1" parent="1" source="Mj05zwDxuwMNoxbGGxml-112" target="Mj05zwDxuwMNoxbGGxml-160">
          <mxGeometry width="50" height="50" relative="1" as="geometry">
            <mxPoint x="590" y="810" as="sourcePoint" />
            <mxPoint x="640" y="760" as="targetPoint" />
          </mxGeometry>
        </mxCell>
        <mxCell id="Mj05zwDxuwMNoxbGGxml-171" value="" style="group" vertex="1" connectable="0" parent="1">
          <mxGeometry x="260" y="745" width="120" height="80" as="geometry" />
        </mxCell>
        <mxCell id="Mj05zwDxuwMNoxbGGxml-127" value="" style="ellipse;whiteSpace=wrap;html=1;" vertex="1" parent="Mj05zwDxuwMNoxbGGxml-171">
          <mxGeometry width="120" height="80" as="geometry" />
        </mxCell>
        <mxCell id="Mj05zwDxuwMNoxbGGxml-128" value="VendorID&lt;div&gt;(FK)&lt;/div&gt;" style="text;html=1;align=center;verticalAlign=middle;whiteSpace=wrap;rounded=0;" vertex="1" parent="Mj05zwDxuwMNoxbGGxml-171">
          <mxGeometry x="30" y="30" width="60" height="30" as="geometry" />
        </mxCell>
        <mxCell id="Mj05zwDxuwMNoxbGGxml-173" value="" style="group" vertex="1" connectable="0" parent="1">
          <mxGeometry x="570" y="930" width="120" height="60" as="geometry" />
        </mxCell>
        <mxCell id="Mj05zwDxuwMNoxbGGxml-174" value="" style="rounded=1;whiteSpace=wrap;html=1;" vertex="1" parent="Mj05zwDxuwMNoxbGGxml-173">
          <mxGeometry width="120" height="60" as="geometry" />
        </mxCell>
        <mxCell id="Mj05zwDxuwMNoxbGGxml-175" value="Vendor" style="text;html=1;align=center;verticalAlign=middle;whiteSpace=wrap;rounded=0;" vertex="1" parent="Mj05zwDxuwMNoxbGGxml-173">
          <mxGeometry x="30" y="15" width="60" height="30" as="geometry" />
        </mxCell>
        <mxCell id="Mj05zwDxuwMNoxbGGxml-176" value="" style="group" vertex="1" connectable="0" parent="1">
          <mxGeometry x="400" y="980" width="120" height="80" as="geometry" />
        </mxCell>
        <mxCell id="Mj05zwDxuwMNoxbGGxml-177" value="" style="ellipse;whiteSpace=wrap;html=1;" vertex="1" parent="Mj05zwDxuwMNoxbGGxml-176">
          <mxGeometry width="120" height="80" as="geometry" />
        </mxCell>
        <mxCell id="Mj05zwDxuwMNoxbGGxml-178" value="&lt;u&gt;VendorID&lt;/u&gt;" style="text;html=1;align=center;verticalAlign=middle;whiteSpace=wrap;rounded=0;" vertex="1" parent="Mj05zwDxuwMNoxbGGxml-176">
          <mxGeometry x="30" y="25" width="60" height="30" as="geometry" />
        </mxCell>
        <mxCell id="Mj05zwDxuwMNoxbGGxml-179" value="" style="group" vertex="1" connectable="0" parent="1">
          <mxGeometry x="540" y="1030" width="120" height="80" as="geometry" />
        </mxCell>
        <mxCell id="Mj05zwDxuwMNoxbGGxml-180" value="" style="ellipse;whiteSpace=wrap;html=1;" vertex="1" parent="Mj05zwDxuwMNoxbGGxml-179">
          <mxGeometry width="120" height="80" as="geometry" />
        </mxCell>
        <mxCell id="Mj05zwDxuwMNoxbGGxml-181" value="VendorName" style="text;html=1;align=center;verticalAlign=middle;whiteSpace=wrap;rounded=0;" vertex="1" parent="Mj05zwDxuwMNoxbGGxml-179">
          <mxGeometry x="30" y="25" width="60" height="30" as="geometry" />
        </mxCell>
        <mxCell id="Mj05zwDxuwMNoxbGGxml-182" value="" style="group" vertex="1" connectable="0" parent="1">
          <mxGeometry x="690" y="1030" width="120" height="80" as="geometry" />
        </mxCell>
        <mxCell id="Mj05zwDxuwMNoxbGGxml-183" value="" style="ellipse;whiteSpace=wrap;html=1;" vertex="1" parent="Mj05zwDxuwMNoxbGGxml-182">
          <mxGeometry width="120" height="80" as="geometry" />
        </mxCell>
        <mxCell id="Mj05zwDxuwMNoxbGGxml-184" value="ContactInfo" style="text;html=1;align=center;verticalAlign=middle;whiteSpace=wrap;rounded=0;" vertex="1" parent="Mj05zwDxuwMNoxbGGxml-182">
          <mxGeometry x="30" y="25" width="60" height="30" as="geometry" />
        </mxCell>
        <mxCell id="Mj05zwDxuwMNoxbGGxml-185" value="" style="endArrow=none;html=1;rounded=0;exitX=1;exitY=0;exitDx=0;exitDy=0;entryX=0;entryY=0.75;entryDx=0;entryDy=0;" edge="1" parent="1" source="Mj05zwDxuwMNoxbGGxml-177" target="Mj05zwDxuwMNoxbGGxml-174">
          <mxGeometry width="50" height="50" relative="1" as="geometry">
            <mxPoint x="590" y="810" as="sourcePoint" />
            <mxPoint x="640" y="760" as="targetPoint" />
          </mxGeometry>
        </mxCell>
        <mxCell id="Mj05zwDxuwMNoxbGGxml-186" value="" style="endArrow=none;html=1;rounded=0;exitX=0.5;exitY=0;exitDx=0;exitDy=0;entryX=0.5;entryY=1;entryDx=0;entryDy=0;" edge="1" parent="1" source="Mj05zwDxuwMNoxbGGxml-180" target="Mj05zwDxuwMNoxbGGxml-174">
          <mxGeometry width="50" height="50" relative="1" as="geometry">
            <mxPoint x="590" y="810" as="sourcePoint" />
            <mxPoint x="640" y="760" as="targetPoint" />
          </mxGeometry>
        </mxCell>
        <mxCell id="Mj05zwDxuwMNoxbGGxml-187" value="" style="endArrow=none;html=1;rounded=0;exitX=0;exitY=0;exitDx=0;exitDy=0;entryX=0.5;entryY=1;entryDx=0;entryDy=0;" edge="1" parent="1" source="Mj05zwDxuwMNoxbGGxml-183" target="Mj05zwDxuwMNoxbGGxml-174">
          <mxGeometry width="50" height="50" relative="1" as="geometry">
            <mxPoint x="590" y="810" as="sourcePoint" />
            <mxPoint x="640" y="760" as="targetPoint" />
          </mxGeometry>
        </mxCell>
        <mxCell id="Mj05zwDxuwMNoxbGGxml-188" value="" style="endArrow=classic;html=1;rounded=0;exitX=1;exitY=0.5;exitDx=0;exitDy=0;entryX=0.5;entryY=0;entryDx=0;entryDy=0;" edge="1" parent="1" source="Mj05zwDxuwMNoxbGGxml-112" target="Mj05zwDxuwMNoxbGGxml-174">
          <mxGeometry width="50" height="50" relative="1" as="geometry">
            <mxPoint x="590" y="810" as="sourcePoint" />
            <mxPoint x="640" y="760" as="targetPoint" />
          </mxGeometry>
        </mxCell>
        <mxCell id="Mj05zwDxuwMNoxbGGxml-189" value="" style="endArrow=classic;html=1;rounded=0;exitX=1;exitY=0.5;exitDx=0;exitDy=0;entryX=0;entryY=0.75;entryDx=0;entryDy=0;" edge="1" parent="1" source="Mj05zwDxuwMNoxbGGxml-112" target="Mj05zwDxuwMNoxbGGxml-191">
          <mxGeometry width="50" height="50" relative="1" as="geometry">
            <mxPoint x="780" y="590" as="sourcePoint" />
            <mxPoint x="1240" y="520" as="targetPoint" />
            <Array as="points">
              <mxPoint x="720" y="550" />
              <mxPoint x="990" y="530" />
            </Array>
          </mxGeometry>
        </mxCell>
        <mxCell id="Mj05zwDxuwMNoxbGGxml-190" value="" style="endArrow=classic;html=1;rounded=0;exitX=1;exitY=0.75;exitDx=0;exitDy=0;entryX=0;entryY=0.25;entryDx=0;entryDy=0;" edge="1" parent="1" source="Mj05zwDxuwMNoxbGGxml-12" target="Mj05zwDxuwMNoxbGGxml-191">
          <mxGeometry width="50" height="50" relative="1" as="geometry">
            <mxPoint x="780" y="420" as="sourcePoint" />
            <mxPoint x="1230" y="500" as="targetPoint" />
            <Array as="points">
              <mxPoint x="980" y="520" />
              <mxPoint x="1120" y="520" />
            </Array>
          </mxGeometry>
        </mxCell>
        <mxCell id="Mj05zwDxuwMNoxbGGxml-191" value="" style="shape=ext;double=1;rounded=1;whiteSpace=wrap;html=1;" vertex="1" parent="1">
          <mxGeometry x="1270" y="470" width="120" height="80" as="geometry" />
        </mxCell>
        <mxCell id="Mj05zwDxuwMNoxbGGxml-192" value="OrderItem" style="text;html=1;align=center;verticalAlign=middle;whiteSpace=wrap;rounded=0;" vertex="1" parent="1">
          <mxGeometry x="1300" y="495" width="60" height="30" as="geometry" />
        </mxCell>
        <mxCell id="Mj05zwDxuwMNoxbGGxml-193" value="" style="group" vertex="1" connectable="0" parent="1">
          <mxGeometry x="1430" y="370" width="120" height="80" as="geometry" />
        </mxCell>
        <mxCell id="Mj05zwDxuwMNoxbGGxml-194" value="" style="ellipse;whiteSpace=wrap;html=1;" vertex="1" parent="Mj05zwDxuwMNoxbGGxml-193">
          <mxGeometry width="120" height="80" as="geometry" />
        </mxCell>
        <mxCell id="Mj05zwDxuwMNoxbGGxml-195" value="&lt;u&gt;OrderID&lt;/u&gt;" style="text;html=1;align=center;verticalAlign=middle;whiteSpace=wrap;rounded=0;" vertex="1" parent="Mj05zwDxuwMNoxbGGxml-193">
          <mxGeometry x="30" y="25" width="60" height="30" as="geometry" />
        </mxCell>
        <mxCell id="Mj05zwDxuwMNoxbGGxml-196" value="" style="group" vertex="1" connectable="0" parent="1">
          <mxGeometry x="1450" y="460" width="120" height="80" as="geometry" />
        </mxCell>
        <mxCell id="Mj05zwDxuwMNoxbGGxml-197" value="" style="ellipse;whiteSpace=wrap;html=1;" vertex="1" parent="Mj05zwDxuwMNoxbGGxml-196">
          <mxGeometry width="120" height="80" as="geometry" />
        </mxCell>
        <mxCell id="Mj05zwDxuwMNoxbGGxml-198" value="&lt;u&gt;ProductID&lt;/u&gt;" style="text;html=1;align=center;verticalAlign=middle;whiteSpace=wrap;rounded=0;" vertex="1" parent="Mj05zwDxuwMNoxbGGxml-196">
          <mxGeometry x="30" y="25" width="60" height="30" as="geometry" />
        </mxCell>
        <mxCell id="Mj05zwDxuwMNoxbGGxml-199" value="" style="group" vertex="1" connectable="0" parent="1">
          <mxGeometry x="1440" y="570" width="120" height="80" as="geometry" />
        </mxCell>
        <mxCell id="Mj05zwDxuwMNoxbGGxml-200" value="" style="ellipse;whiteSpace=wrap;html=1;" vertex="1" parent="Mj05zwDxuwMNoxbGGxml-199">
          <mxGeometry width="120" height="80" as="geometry" />
        </mxCell>
        <mxCell id="Mj05zwDxuwMNoxbGGxml-201" value="Quantity" style="text;html=1;align=center;verticalAlign=middle;whiteSpace=wrap;rounded=0;" vertex="1" parent="Mj05zwDxuwMNoxbGGxml-199">
          <mxGeometry x="30" y="25" width="60" height="30" as="geometry" />
        </mxCell>
        <mxCell id="Mj05zwDxuwMNoxbGGxml-202" value="" style="group" vertex="1" connectable="0" parent="1">
          <mxGeometry x="1340" y="650" width="120" height="80" as="geometry" />
        </mxCell>
        <mxCell id="Mj05zwDxuwMNoxbGGxml-203" value="" style="ellipse;whiteSpace=wrap;html=1;" vertex="1" parent="Mj05zwDxuwMNoxbGGxml-202">
          <mxGeometry width="120" height="80" as="geometry" />
        </mxCell>
        <mxCell id="Mj05zwDxuwMNoxbGGxml-204" value="PriceAtOrder" style="text;html=1;align=center;verticalAlign=middle;whiteSpace=wrap;rounded=0;" vertex="1" parent="Mj05zwDxuwMNoxbGGxml-202">
          <mxGeometry x="30" y="25" width="60" height="30" as="geometry" />
        </mxCell>
        <mxCell id="Mj05zwDxuwMNoxbGGxml-205" value="" style="endArrow=none;html=1;rounded=0;exitX=0;exitY=0.5;exitDx=0;exitDy=0;entryX=0.75;entryY=0;entryDx=0;entryDy=0;" edge="1" parent="1" source="Mj05zwDxuwMNoxbGGxml-194" target="Mj05zwDxuwMNoxbGGxml-191">
          <mxGeometry width="50" height="50" relative="1" as="geometry">
            <mxPoint x="1480" y="570" as="sourcePoint" />
            <mxPoint x="1530" y="520" as="targetPoint" />
          </mxGeometry>
        </mxCell>
        <mxCell id="Mj05zwDxuwMNoxbGGxml-206" value="" style="endArrow=none;html=1;rounded=0;exitX=0;exitY=0.5;exitDx=0;exitDy=0;entryX=1;entryY=0.5;entryDx=0;entryDy=0;" edge="1" parent="1" source="Mj05zwDxuwMNoxbGGxml-197" target="Mj05zwDxuwMNoxbGGxml-191">
          <mxGeometry width="50" height="50" relative="1" as="geometry">
            <mxPoint x="1480" y="570" as="sourcePoint" />
            <mxPoint x="1530" y="520" as="targetPoint" />
          </mxGeometry>
        </mxCell>
        <mxCell id="Mj05zwDxuwMNoxbGGxml-207" value="" style="endArrow=none;html=1;rounded=0;exitX=0;exitY=0;exitDx=0;exitDy=0;entryX=1;entryY=0.75;entryDx=0;entryDy=0;" edge="1" parent="1" source="Mj05zwDxuwMNoxbGGxml-200" target="Mj05zwDxuwMNoxbGGxml-191">
          <mxGeometry width="50" height="50" relative="1" as="geometry">
            <mxPoint x="1480" y="570" as="sourcePoint" />
            <mxPoint x="1530" y="520" as="targetPoint" />
          </mxGeometry>
        </mxCell>
        <mxCell id="Mj05zwDxuwMNoxbGGxml-208" value="" style="endArrow=none;html=1;rounded=0;exitX=0.5;exitY=0;exitDx=0;exitDy=0;entryX=0.75;entryY=1;entryDx=0;entryDy=0;" edge="1" parent="1" source="Mj05zwDxuwMNoxbGGxml-203" target="Mj05zwDxuwMNoxbGGxml-191">
          <mxGeometry width="50" height="50" relative="1" as="geometry">
            <mxPoint x="1480" y="570" as="sourcePoint" />
            <mxPoint x="1530" y="520" as="targetPoint" />
          </mxGeometry>
        </mxCell>
      </root>
    </mxGraphModel>
  </diagram>
</mxfile>
